<svg xmlns="http://www.w3.org/2000/svg" viewBox="0 0 1205.31 181.91"><defs><style>.cls-1{fill:#c35224;}</style></defs><g id="Layer_2" data-name="Layer 2"><g id="Layer_1-2" data-name="Layer 1"><path class="cls-1" d="M230.79,0H68.14V45.4H207.57V179.7a1.51,1.51,0,0,0,.92,1.39,1.46,1.46,0,0,0,.58.11,1.49,1.49,0,0,0,1.06-.44l43.06-43.07V22.4Z"/><rect class="cls-1" x="68.14" y="68.25" width="116.69" height="45.4"/><path class="cls-1" d="M45.4,2.21a1.5,1.5,0,0,0-2.56-1.06L0,44V159.62l22.29,22.29H184.83v-45.4H45.4Z"/><polygon points="1174.85 44.38 1187.72 44.38 1187.72 47.72 1182.84 47.72 1182.84 57.2 1179.49 57.2 1179.49 47.72 1174.85 47.72 1174.85 44.38"/><path d="M1205.31,44.38V57.2H1202V50.54l-1.93,3.31-1.68,2.89h-3.79l-3.59-6.2v6.65s0,0,0,0h-3.29V44.38h3.56l5.23,9,5.22-9Z"/><polygon points="433.95 43.38 433.95 138.53 464.31 138.53 464.31 60.18 454.83 43.38 433.95 43.38"/><path d="M573.63,47.54c-.44.71-11.86,20.13-33.93,57.74-3.5-6.1-17.31-29.52-36.2-61.41l-.29-.49H471.79l53.64,95.15H553.9l.29-.5s15.49-27.27,39.67-69.95H725.59V43.38H576.08Z"/><polygon points="740.4 138.53 766.34 138.53 766.34 101.31 849.77 101.31 849.77 79.39 766.34 79.39 766.34 69.19 849.77 69.19 849.77 43.38 740.4 43.38 740.4 138.53"/><path d="M1022.67,96.17a30.92,30.92,0,0,0-21.86-52.79H909.57V69.19h91.24a5.1,5.1,0,1,1,0,10.2H909.57v59.14h25.74V105.05c5.21-.06,30.8-.1,41.15-.11h3.14l19.72,33.59h35.35l-21.08-36.07A30.8,30.8,0,0,0,1022.67,96.17Z"/><polygon points="1046.51 43.38 1046.51 53.86 1060.71 68.06 1155.82 68.06 1155.82 43.38 1046.51 43.38"/><polygon points="1072.32 113.36 1072.32 101.31 1155.74 101.31 1155.74 79.32 1046.51 79.32 1046.51 121.73 1055.97 138.53 1155.82 138.53 1155.82 114.42 1155.74 113.36 1072.32 113.36"/><polygon points="616.28 124.33 630.49 138.53 725.59 138.53 725.59 114.42 725.53 113.36 642.09 113.36 642.09 101.24 725.59 101.31 725.59 79.39 616.28 79.32 616.28 124.33"/><polygon points="334.81 43.38 308.93 43.38 308.93 124.33 323.14 138.53 419.23 138.53 419.23 111.51 334.81 111.51 334.81 43.38"/><polygon points="864.51 124.33 878.72 138.53 894.87 138.53 894.87 43.38 864.51 43.38 864.51 124.33"/></g></g></svg>